HIERARCHY
ROOT hip
{
	OFFSET 0.000000 0.000000 0.000000 
	CHANNELS 6 Xposition Yposition Zposition Xrotation Zrotation Yrotation
	JOINT abdomen
	{
		OFFSET 0.000000 3.402643 0.000000 
		CHANNELS 3 Xrotation Zrotation Yrotation
		JOINT chest
		{
			OFFSET 0.000000 8.438565 -0.680529 
			CHANNELS 3 Xrotation Zrotation Yrotation
			JOINT neck
			{
				OFFSET 0.000000 10.207942 -0.272212 
				CHANNELS 3 Xrotation Zrotation Yrotation
				JOINT head
				{
					OFFSET 0.000000 3.130431 0.000000 
					CHANNELS 3 Xrotation Zrotation Yrotation
					End Site
					{
						OFFSET 0.000000 3.130435 0.000000 
					}
				}
			}
			JOINT lCollar
			{
				OFFSET 3.470700 6.669187 -0.816635 
				CHANNELS 3 Yrotation Zrotation Xrotation
				JOINT lShldr
				{
					OFFSET 3.198488 0.000000 0.000000 
					CHANNELS 3 Zrotation Yrotation Xrotation
					JOINT lForeArm
					{
						OFFSET 10.139888 0.000000 0.000000 
						CHANNELS 3 Yrotation Zrotation Xrotation
						JOINT lHand
						{
							OFFSET 8.370511 0.000000 0.000000 
							CHANNELS 3 Zrotation Yrotation Xrotation
							End Site
							{
								OFFSET 4.083176 0.000000 0.000000 
							}
						}
					}
				}
			}
			JOINT rCollar
			{
				OFFSET -3.470700 6.669187 -0.816635 
				CHANNELS 3 Yrotation Zrotation Xrotation
				JOINT rShldr
				{
					OFFSET -3.198488 0.000000 0.000000 
					CHANNELS 3 Zrotation Yrotation Xrotation
					JOINT rForeArm
					{
						OFFSET -10.139888 0.000000 0.000000 
						CHANNELS 3 Yrotation Zrotation Xrotation
						JOINT rHand
						{
							OFFSET -8.370511 0.000000 0.000000 
							CHANNELS 3 Zrotation Yrotation Xrotation
							End Site
							{
								OFFSET -4.083176 0.000000 0.000000 
							}
						}
					}
				}
			}
		}
	}
	JOINT lThigh
	{
		OFFSET 5.308129 -1.633274 1.361059 
		CHANNELS 3 Xrotation Zrotation Yrotation
		JOINT lShin
		{
			OFFSET -2.041588 -20.007561 0.000000 
			CHANNELS 3 Xrotation Zrotation Yrotation
			JOINT lFoot
			{
				OFFSET 0.000000 -19.190928 -1.224953 
				CHANNELS 3 Xrotation Yrotation Zrotation
				End Site
				{
					OFFSET 0.000000 -2.449906 4.627600 
				}
			}
		}
	}
	JOINT rThigh
	{
		OFFSET -5.308129 -1.633274 1.361059 
		CHANNELS 3 Xrotation Zrotation Yrotation
		JOINT rShin
		{
			OFFSET 2.041588 -20.007561 0.000000 
			CHANNELS 3 Xrotation Zrotation Yrotation
			JOINT rFoot
			{
				OFFSET 0.000000 -19.190928 -1.224953 
				CHANNELS 3 Xrotation Yrotation Zrotation
				End Site
				{
					OFFSET 0.000000 -2.449906 4.627600 
				}
			}
		}
	}
}
MOTION
Frames: 13
Frame Time: 0.016667
2.057758 51.330502 -23.061287 -2.013649 -9.373585 -44.707802 39.959362 5.603504 6.090786 7.735765 2.255832 0.205627 -7.398827 -3.808959 0.675727 9.631481 -3.923589 15.554465 -12.805954 3.383784 0.167523 -29.804962 -16.385618 -7.465372 -74.774200 5.000000 -5.325122 -26.547478 -22.799118 14.141139 13.847537 -1.497032 0.089306 23.223511 51.037708 0.595700 95.885452 1.171978 0.097801 26.269358 1.129121 -7.119233 -9.334787 24.760469 9.250571 12.911261 -5.837347 -1.629900 11.619339 -0.609021 -10.838917 12.037749 -5.136403 -14.603863 19.766823 2.340215 0.849096 -18.505846 -5.711808 7.849298 
1.995152 51.298965 -23.056446 -2.172484 -9.472027 -44.403454 40.075546 5.593784 6.005400 7.861905 2.246070 0.176344 -7.710992 -3.670857 0.674558 9.366536 -3.875259 15.621997 -12.674450 0.565261 0.021818 -30.208338 -18.869904 -6.434639 -73.313705 5.000000 -6.044110 -26.445267 -24.006992 14.316299 14.051868 0.897403 -0.053645 29.267124 50.325802 6.841679 95.688911 0.122384 0.203891 26.195257 1.878736 -6.064359 -9.412813 24.809536 8.862095 13.258882 -5.946946 -1.690616 11.456680 -0.593351 -10.851102 12.217973 -5.095887 -14.781971 20.014282 2.330891 0.842848 -18.789562 -5.824519 7.831261 
1.902712 51.256462 -23.030586 -2.425627 -9.595370 -43.851753 40.221481 5.616881 5.876273 7.974695 2.324211 0.000276 -8.093207 -3.677582 0.695289 9.031199 -3.874335 15.671364 -12.558916 -1.765633 -0.098554 -30.746824 -20.186140 -5.377108 -72.494705 5.000000 -6.455898 -26.231424 -25.116796 14.098091 13.693849 2.730952 -0.148837 34.966324 49.005989 12.193333 95.972832 -0.731834 0.288255 26.067247 2.330468 -5.482321 -9.616876 24.845091 8.315171 13.829792 -6.081772 -1.805389 11.158229 -0.589650 -10.781616 12.548670 -5.000202 -15.095012 20.344685 2.280637 0.835168 -19.157333 -6.063228 7.816159 
1.810271 51.213955 -23.004721 -2.679012 -9.712903 -43.288887 40.369133 5.657499 5.755803 8.076991 2.402344 -0.185155 -8.475927 -3.673185 0.724195 8.695861 -3.873409 15.720073 -12.438495 -4.086768 -0.218353 -31.310045 -21.493132 -4.299090 -71.662315 5.000000 -6.880152 -26.028868 -26.203707 13.889345 13.348609 4.554738 -0.243216 40.286331 47.358093 17.163719 96.248459 -1.594953 0.380811 25.957993 2.776701 -4.905270 -9.814794 24.873121 7.747266 14.403571 -6.236793 -1.873998 10.855527 -0.626890 -10.682773 12.840334 -4.931877 -15.414042 20.693438 2.232529 0.848149 -19.506044 -6.288588 7.773293 
1.708912 51.163773 -22.967697 -2.925135 -9.853075 -42.719799 40.499695 5.743836 5.611787 8.137683 2.509757 -0.468600 -8.742236 -3.776458 0.760159 8.392433 -3.935984 15.887660 -12.261103 -5.832499 -0.309221 -31.830950 -21.979919 -3.513818 -71.404335 5.000000 -7.014987 -25.714085 -26.974607 13.551188 12.719769 5.773907 -0.307168 44.837971 45.650196 20.948332 96.913803 -1.997658 0.476651 25.784788 2.974104 -4.745756 -10.086892 24.897884 7.223340 15.120894 -6.349043 -1.993274 10.436621 -0.658762 -10.587152 13.166494 -4.833179 -15.746465 21.062489 2.184651 0.832479 -19.819334 -6.473804 7.742965 
1.605332 51.111691 -22.927885 -3.176592 -9.996222 -42.130074 40.631435 5.849113 5.465401 8.176843 2.617136 -0.791085 -8.979888 -3.918347 0.801329 8.106112 -3.997829 16.084486 -12.066042 -7.441682 -0.393353 -32.332310 -22.264160 -2.799682 -71.301826 5.000000 -7.060544 -25.377361 -27.642424 13.182635 12.032699 6.837039 -0.363312 48.986248 43.821060 24.218813 97.667030 -2.291218 0.577327 25.578281 3.098192 -4.688500 -10.361743 24.961046 6.701030 15.893350 -6.503176 -2.133406 9.967954 -0.767133 -10.514845 13.509126 -4.715742 -16.123735 21.441313 2.122282 0.844201 -20.173399 -6.646289 7.706657 
1.504972 51.060692 -22.887178 -3.396001 -10.175278 -41.647385 40.740936 5.993670 5.370848 8.137206 2.714711 -1.103805 -9.050991 -4.061701 0.832858 7.961010 -4.068264 16.311230 -11.900913 -8.836297 -0.466656 -32.739536 -22.293457 -2.214560 -71.462173 5.000000 -7.014364 -24.951309 -28.104769 12.860371 11.315681 7.666112 -0.406245 52.564426 42.098484 26.927603 98.585976 -2.417158 0.666712 25.350735 3.124146 -4.658266 -10.612668 25.069468 6.246206 16.663841 -6.632811 -2.262925 9.529984 -0.855195 -10.385520 13.841451 -4.608806 -16.393579 21.787518 2.105781 0.822787 -20.478687 -6.810457 7.685905 
1.409444 51.011349 -22.845131 -3.568471 -10.408772 -41.302460 40.857285 6.179707 5.327559 7.970572 2.763421 -1.387234 -8.866306 -4.219111 0.836950 8.015465 -4.136997 16.606869 -11.773927 -9.938324 -0.525073 -33.007439 -21.952419 -1.837247 -72.054024 5.000000 -6.794497 -24.397499 -28.249264 12.592530 10.567274 8.144103 -0.432351 55.525211 40.665051 29.034697 99.728195 -2.260049 0.716588 25.077106 3.001704 -4.644601 -10.818643 25.258888 5.912046 17.507002 -6.728425 -2.445018 9.015601 -0.897829 -10.307234 14.183703 -4.442767 -16.591362 22.083435 2.086382 0.836479 -20.820774 -6.921751 7.650620 
1.313915 50.962006 -22.803078 -3.743433 -10.643768 -40.958229 40.974300 6.373830 5.289661 7.793657 2.821855 -1.670661 -8.681579 -4.376522 0.841043 8.076817 -4.214953 16.892090 -11.648022 -11.030588 -0.583162 -33.261063 -21.601055 -1.470992 -72.645638 5.000000 -6.578106 -23.831320 -28.393522 12.318528 9.809320 8.622096 -0.457122 58.357540 39.145103 31.005005 100.880035 -2.102453 0.759923 24.813383 2.875524 -4.642343 -11.022954 25.461445 5.556264 18.353842 -6.838443 -2.602625 8.534966 -0.915514 -10.190228 14.495345 -4.287009 -16.791092 22.395592 2.096120 0.875829 -21.102779 -7.036560 7.604417 
1.253062 50.919514 -22.762793 -3.849151 -10.884954 -40.917141 41.021076 6.581420 5.255000 7.340069 2.772941 -1.827265 -8.024130 -4.591009 0.794690 8.478776 -4.120466 17.360207 -11.549483 -11.849779 -0.627331 -33.198895 -21.007576 -1.197078 -73.867500 5.000000 -6.282705 -23.378065 -28.131348 12.234804 9.126285 8.690477 -0.460673 60.611202 38.508549 33.004135 102.139870 -2.104178 0.855956 24.481918 2.508670 -4.599323 -11.169353 25.685566 5.455913 19.182167 -6.877202 -2.739670 8.007369 -0.953011 -10.131415 14.726127 -4.180029 -16.743591 22.651424 2.085154 0.888666 -21.286238 -7.074952 7.652251 
1.192210 50.877022 -22.722509 -3.943536 -11.124925 -40.888233 41.076817 6.779013 5.213944 6.876435 2.724010 -2.002916 -7.366352 -4.815148 0.749832 8.876200 -4.044724 17.829044 -11.451737 -12.678717 -0.672148 -33.127201 -20.412563 -0.935438 -75.088043 5.000000 -5.966337 -22.930004 -27.865942 12.173521 8.453018 8.758856 -0.464223 62.815865 37.814224 34.951569 103.399307 -2.074804 0.950167 24.148928 2.146367 -4.560943 -11.286849 25.920994 5.369384 20.016550 -6.888405 -2.873020 7.448417 -0.950198 -10.071879 14.913453 -4.071906 -16.687119 22.917587 2.067374 0.900784 -21.449480 -7.116855 7.698205 
1.157420 50.832062 -22.686026 -3.970034 -11.362680 -41.009510 41.117031 7.010384 5.209331 6.298513 2.636061 -2.100950 -6.578825 -5.062993 0.678221 9.347649 -3.939683 18.364719 -11.421168 -13.361354 -0.709554 -32.976303 -19.825380 -0.625712 -76.563469 5.000000 -5.611136 -22.693359 -27.473282 12.186867 7.727782 8.623759 -0.447608 64.967728 37.660175 37.281281 104.555977 -2.444414 1.117310 23.766546 1.775742 -4.532763 -11.425171 26.179058 5.397368 20.865038 -6.878695 -2.985883 6.927205 -0.951134 -9.991264 14.952724 -4.013031 -16.515093 23.274227 2.033750 0.886191 -21.671984 -7.086974 7.786266 
1.140002 50.785435 -22.652073 -3.960637 -11.595737 -41.243103 41.139690 7.245783 5.225161 5.644690 2.518854 -2.139534 -5.701159 -5.342721 0.591745 9.874167 -3.815726 18.929699 -11.419196 -13.956218 -0.742555 -32.760307 -19.251188 -0.276458 -78.230743 5.000000 -5.173852 -22.590788 -27.014606 12.266531 6.973701 8.350695 -0.433463 67.126709 37.815182 39.904629 105.629913 -3.065458 1.353441 23.345800 1.380748 -4.499457 -11.561053 26.420771 5.493701 21.691971 -6.829144 -3.060854 6.365538 -0.858249 -9.903211 14.923746 -3.964489 -16.277548 23.689951 1.989413 0.882120 -21.956934 -7.030357 7.900317 
